<?xml version="1.0" encoding="UTF-8"?>
<svg width="248px" height="248px" viewBox="0 0 248 248" version="1.1" xmlns="http://www.w3.org/2000/svg" xmlns:xlink="http://www.w3.org/1999/xlink">
    <!-- Generator: Sketch 53.2 (72643) - https://sketchapp.com -->
    <title>Desktop</title>
    <desc>Created with Sketch.</desc>
    <defs>
        <path d="M158.277778,141.111111 L111.111111,71.8888889 L111.111111,11.1111111 L116.666667,11.1111111 C119.734915,11.1111111 122.222222,8.62380417 122.222222,5.55555556 C122.222222,2.48730695 119.734915,0 116.666667,0 L50.4444444,0 C47.3761958,0 44.8888889,2.48730695 44.8888889,5.55555556 C44.8888889,8.62380417 47.3761958,11.1111111 50.4444444,11.1111111 L55.5555556,11.1111111 L55.5555556,71.8888889 L8.77777778,140.611111 C5.3164148,145.437028 3.7720036,151.377071 4.44444444,157.277778 C5.95447756,169.009645 15.9491371,177.790667 27.7777778,177.777778 L138.111111,177.777778 C144.583267,177.976553 150.865567,175.575674 155.555556,171.111111 C163.595504,163.083878 164.74151,150.454419 158.277778,141.111111 L158.277778,141.111111 Z M66.6666667,74.9444444 L66.6666667,11.1111111 L100,11.1111111 L100,74.9444444 L128.611111,116.666667 L38.0555556,116.666667 L66.6666667,74.9444444 Z" id="path-1"></path>
    </defs>
    <g id="Desktop" stroke="none" stroke-width="1" fill="none" fill-rule="evenodd">
        <g id="flask-beaker-solid" transform="translate(24.000000, 24.000000)">
            <g id="color" transform="translate(16.666667, 11.111111)">
                <mask id="mask-2" fill="white">
                    <use xlink:href="#path-1"></use>
                </mask>
                <use id="Mask" fill="#000000" fill-rule="nonzero" xlink:href="#path-1"></use>
                <g id="./-blue-0079B8" mask="url(#mask-2)" fill="#0079B8">
                    <g transform="translate(-16.666667, -11.111111)" id="Rectangle">
                        <rect x="0" y="0" width="200" height="200"></rect>
                    </g>
                </g>
            </g>
        </g>
    </g>
</svg>