<svg id="Layer_1" data-name="Layer 1" xmlns="http://www.w3.org/2000/svg" viewBox="0 0 175.54 176"><defs><style>.cls-1{fill:#fff;}</style></defs><title>code-logo-reversed</title><path class="cls-1" d="M90.23,160.86A70.85,70.85,0,0,1,19.91,98.64H35.79a55.17,55.17,0,0,0,45.4,45.73V128.94a40,40,0,1,1,18.08,0v15.43a55.12,55.12,0,0,0,35-87.48l11.2-11.2A70.54,70.54,0,0,1,160.5,81h17.27a88,88,0,1,0,0,18.08H160.5A70.86,70.86,0,0,1,90.23,160.86Zm0-141.72a70.51,70.51,0,0,1,42.9,14.48L121.87,44.88A55.1,55.1,0,0,0,35.79,81.36H19.91A70.85,70.85,0,0,1,90.23,19.14Z" transform="translate(-2.23 -2)"/></svg>