<svg id="Layer_3" data-name="Layer 3" xmlns="http://www.w3.org/2000/svg" viewBox="0 0 259.95 260.63"><defs><style>.cls-1{fill:#006990;}</style></defs><title>code-logo</title><path class="cls-1" d="M130.31,235.25A104.94,104.94,0,0,1,26.18,143.11H49.7a81.68,81.68,0,0,0,67.22,67.72V188a59.21,59.21,0,1,1,26.79,0v22.85A81.62,81.62,0,0,0,195.57,81.28l16.59-16.59a104.51,104.51,0,0,1,22.21,52.23H260a130.32,130.32,0,1,0,0,26.79H234.37A104.93,104.93,0,0,1,130.31,235.25Zm0-209.87a104.43,104.43,0,0,1,63.53,21.44L177.17,63.49a81.62,81.62,0,0,0-127.48,54H26.18A104.93,104.93,0,0,1,130.31,25.38Z"/></svg>