<?xml version="1.0" encoding="UTF-8"?>
<svg width="248px" height="248px" viewBox="0 0 248 248" version="1.1" xmlns="http://www.w3.org/2000/svg" xmlns:xlink="http://www.w3.org/1999/xlink">
    <!-- Generator: Sketch 53.2 (72643) - https://sketchapp.com -->
    <title>paths</title>
    <desc>Created with Sketch.</desc>
    <defs>
        <path d="M62.8888889,49.3888889 L47.7222222,64.5555556 C46.1311662,66.3115272 46.1975304,69.0069371 47.8730744,70.6824811 C49.5486185,72.3580252 52.2440284,72.4243894 54,70.8333333 L69.1666667,55.5555556 C70.3820446,54.4543222 70.8921698,52.77325 70.4937401,51.1823031 C70.0953104,49.5913561 68.8530883,48.349134 67.2621414,47.9507043 C65.6711944,47.5522746 63.9901222,48.0623998 62.8888889,49.2777778 L62.8888889,49.3888889 Z M88.8888889,167.5 L44.4444444,167.5 C41.9898456,167.5 40,169.489846 40,171.944444 C40,174.399043 41.9898456,176.388889 44.4444444,176.388889 L88.8888889,176.388889 C91.3434878,176.388889 93.3333333,174.399043 93.3333333,171.944444 C93.3333333,169.489846 91.3434878,167.5 88.8888889,167.5 Z M99.2222222,150.833333 L33.9444444,150.833333 C31.4898456,150.833333 29.5,152.823179 29.5,155.277778 C29.5,157.732377 31.4898456,159.722222 33.9444444,159.722222 L99.2222222,159.722222 C101.676821,159.722222 103.666667,157.732377 103.666667,155.277778 C103.666667,152.823179 101.676821,150.833333 99.2222222,150.833333 Z M70.1666667,75.0555556 C71.0470158,75.8777397 71.5559326,77.0220477 71.5768786,78.2264408 C71.5978245,79.4308338 71.1290054,80.5921459 70.2777778,81.4444444 L59.7777778,91.9444444 L72.2222222,105.555556 L72.2222222,139.888889 L63.1111111,139.888889 L63.1111111,109.111111 L47.2222222,91.7222222 L63.8888889,75.0555556 C65.6236777,73.3249631 68.4318779,73.3249631 70.1666667,75.0555556 Z M66.6666667,1.38888889 C100.374057,1.38883317 127.716492,28.6815539 127.777778,62.3888889 C127.874613,71.2707178 125.976072,80.0609635 122.222222,88.1111111 C120.371416,91.6138806 118.292882,94.9914991 116,98.2222222 C111.549633,104.18789 107.820053,110.658711 104.888889,117.5 C102.871995,124.741338 101.770817,132.206949 101.611111,139.722222 L90.5,139.722222 C90.6609128,130.864704 91.9871202,122.066906 94.4444444,113.555556 C97.6416996,105.861401 101.764682,98.585549 106.722222,91.8888889 C108.738465,89.1472169 110.593453,86.2905362 112.277778,83.3333333 C115.432268,76.8024722 117.065766,69.6416712 117.055556,62.3888889 C117.055556,34.6672627 94.5827373,12.1944444 66.8611111,12.1944444 C39.1394849,12.1944444 16.6666667,34.6672627 16.6666667,62.3888889 C16.5342364,69.5700776 18.0150649,76.6894455 21,83.2222222 C22.6843252,86.1794251 24.5393127,89.0361058 26.5555556,91.7777778 C31.5403452,98.5062948 35.6822912,105.820001 38.8888889,113.555556 C41.3365973,122.031069 42.6627094,130.79088 42.8333333,139.611111 L31.7222222,139.611111 C31.5625163,132.095838 30.4613386,124.630226 28.4444444,117.388889 C25.5132802,110.5476 21.7837,104.076779 17.3333333,98.1111111 C15.0493203,94.9516732 12.9709532,91.6485541 11.1111111,88.2222222 C7.35726161,80.1720746 5.45872042,71.3818289 5.55555556,62.5 C5.55555556,28.7492653 32.915932,1.38888889 66.6666667,1.38888889 Z" id="path-1"></path>
    </defs>
    <g id="paths" stroke="none" stroke-width="1" fill="none" fill-rule="evenodd">
        <g id="lightbulb-line" transform="translate(24.000000, 24.000000)">
            <g id="color" transform="translate(33.333333, 11.111111)">
                <mask id="mask-2" fill="white">
                    <use xlink:href="#path-1"></use>
                </mask>
                <use id="Mask" fill="#000000" fill-rule="nonzero" xlink:href="#path-1"></use>
                <g id="./-blue-0079B8" mask="url(#mask-2)" fill="#0079B8">
                    <g transform="translate(-33.333333, -11.111111)" id="Rectangle">
                        <rect x="0" y="0" width="200" height="200"></rect>
                    </g>
                </g>
            </g>
        </g>
    </g>
</svg>