<?xml version="1.0" encoding="UTF-8"?>
<svg width="248px" height="248px" viewBox="0 0 248 248" version="1.1" xmlns="http://www.w3.org/2000/svg" xmlns:xlink="http://www.w3.org/1999/xlink">
    <!-- Generator: Sketch 53.2 (72643) - https://sketchapp.com -->
    <title>videos</title>
    <desc>Created with Sketch.</desc>
    <defs>
        <path d="M167.333333,44.4444444 L10.4444444,44.4444444 C4.67613706,44.4444444 0,49.1205815 0,54.8888889 L0,156.222222 C0,161.99053 4.67613706,166.666667 10.4444444,166.666667 L167.333333,166.666667 C173.101641,166.666667 177.777778,161.99053 177.777778,156.222222 L177.777778,54.8888889 C177.777778,49.1205815 173.101641,44.4444444 167.333333,44.4444444 Z M123.222222,110.166667 L68.9444444,134.388889 C67.2272507,135.160805 65.2359575,135.010506 63.6540846,133.989581 C62.0722118,132.968656 61.1150357,131.216043 61.1111111,129.333333 L61.1111111,80.8888889 C61.1150357,79.0061796 62.0722118,77.2535665 63.6540846,76.2326415 C65.2359575,75.2117165 67.2272507,75.0614168 68.9444444,75.8333333 L123.222222,100 C125.236511,100.888167 126.536368,102.881925 126.536368,105.083333 C126.536368,107.284742 125.236511,109.2785 123.222222,110.166667 Z M156.333333,5.55555556 L156.333333,11.1111111 L23,11.1111111 L23,5.55555556 C23,2.48730695 25.4873069,0 28.5555556,0 L150.777778,0 C153.846026,0 156.333333,2.48730695 156.333333,5.55555556 Z M167.333333,27.7777778 L167.333333,33.3333333 L11.7777778,33.3333333 L11.7777778,27.7777778 C11.7777778,24.7095292 14.2650847,22.2222222 17.3333333,22.2222222 L161.777778,22.2222222 C164.846026,22.2222222 167.333333,24.7095292 167.333333,27.7777778 Z" id="path-1"></path>
    </defs>
    <g id="videos" stroke="none" stroke-width="1" fill="none" fill-rule="evenodd">
        <g id="video-gallery-solid" transform="translate(24.000000, 24.000000)">
            <g id="color" transform="translate(11.111111, 16.666667)">
                <mask id="mask-2" fill="white">
                    <use xlink:href="#path-1"></use>
                </mask>
                <use id="Mask" fill="#000000" fill-rule="nonzero" xlink:href="#path-1"></use>
                <g id="./-green-318700" mask="url(#mask-2)" fill="#318700">
                    <g transform="translate(-11.111111, -16.666667)" id="Rectangle">
                        <rect x="0" y="0" width="200" height="200"></rect>
                    </g>
                </g>
            </g>
        </g>
    </g>
</svg>